<?xml version="1.0" encoding="UTF-8"?>
<svg id="Layer_13" data-name="Layer 13" xmlns="http://www.w3.org/2000/svg" width="256" height="256" xmlns:xlink="http://www.w3.org/1999/xlink" viewBox="0 0 256 256">
  <defs>
    <style>
      .cls-1 {
        fill: url(#linear-gradient-6);
      }

      .cls-2 {
        fill: url(#linear-gradient-3);
      }

      .cls-3 {
        fill: url(#linear-gradient-2);
      }

      .cls-4 {
        fill: url(#linear-gradient-4);
      }

      .cls-5 {
        fill: url(#linear-gradient-5);
      }

      .cls-6 {
        fill: #fff;
      }

      .cls-7 {
        fill: url(#radial-gradient);
      }

      .cls-8 {
        fill: url(#linear-gradient);
      }

      .cls-9 {
        opacity: .15;
      }

      .cls-10 {
        opacity: .2;
      }

      .cls-11 {
        opacity: .3;
      }
    </style>
    <radialGradient id="radial-gradient" cx="134.8386" cy="116.6086" fx="134.8386" fy="116.6086" r="40.159" gradientTransform="matrix(1, 0, 0, 1, 0, 0)" gradientUnits="userSpaceOnUse">
      <stop offset="0" stop-color="red"/>
      <stop offset=".1498" stop-color="#f90000"/>
      <stop offset=".3381" stop-color="#ea0000"/>
      <stop offset=".547" stop-color="#d00000"/>
      <stop offset=".7707" stop-color="#ac0000"/>
      <stop offset="1" stop-color="maroon"/>
    </radialGradient>
    <linearGradient id="linear-gradient" x1="178.2987" y1="45.0278" x2="2.1541" y2="133.8138" gradientTransform="matrix(1, 0, 0, 1, 0, 0)" gradientUnits="userSpaceOnUse">
      <stop offset="0" stop-color="#fff"/>
      <stop offset=".3982" stop-color="#ccc"/>
      <stop offset=".4986" stop-color="#b3b3b3"/>
      <stop offset="1" stop-color="#4d4d4d"/>
    </linearGradient>
    <linearGradient id="linear-gradient-2" x1="13.2721" y1="94.4971" x2="30.793" y2="133.2128" gradientTransform="matrix(1, 0, 0, 1, 0, 0)" gradientUnits="userSpaceOnUse">
      <stop offset=".001" stop-color="#fff"/>
      <stop offset="1" stop-color="#999"/>
    </linearGradient>
    <linearGradient id="linear-gradient-3" x1="169.9339" y1="109.8548" x2="182.0855" y2="80.1822" gradientTransform="matrix(1, 0, 0, 1, 0, 0)" gradientUnits="userSpaceOnUse">
      <stop offset=".001" stop-color="#b3b3b3"/>
      <stop offset="1" stop-color="#666"/>
    </linearGradient>
    <linearGradient id="linear-gradient-4" x1="240.239" y1="118.1809" x2="74.372" y2="216.1024" gradientTransform="matrix(1, 0, 0, 1, 0, 0)" gradientUnits="userSpaceOnUse">
      <stop offset="0" stop-color="#fff"/>
      <stop offset=".4695" stop-color="#ccc"/>
      <stop offset=".5872" stop-color="#999"/>
      <stop offset="1" stop-color="#4d4d4d"/>
    </linearGradient>
    <linearGradient id="linear-gradient-5" x1="241.8381" y1="160.4242" x2="225.4475" y2="122.8389" gradientTransform="matrix(1, 0, 0, 1, 0, 0)" gradientUnits="userSpaceOnUse">
      <stop offset=".012" stop-color="#b3b3b3"/>
      <stop offset="1" stop-color="#666"/>
    </linearGradient>
    <linearGradient id="linear-gradient-6" x1="85.7089" y1="145.4674" x2="74.9702" y2="173.7271" xlink:href="#linear-gradient-2"/>
  </defs>
  <g>
    <g>
      <path class="cls-7" d="M139.7025,104h-23.405c-1.4227,0-2.7383,.7556-3.4551,1.9845l-11.6667,20c-.7265,1.2455-.7265,2.7855,0,4.031l11.6667,20c.7168,1.2289,2.0324,1.9845,3.4551,1.9845h23.405c1.4227,0,2.7383-.7556,3.4551-1.9845l11.6667-20c.7265-1.2455,.7265-2.7855,0-4.031l-11.6667-20c-.7168-1.2289-2.0324-1.9845-3.4551-1.9845Z"/>
      <g class="cls-9">
        <path class="cls-6" d="M139.7025,105c1.0629,0,2.0558,.5703,2.5913,1.4883l11.6667,20c.5439,.9324,.5439,2.0909,0,3.0233l-11.6667,20c-.5355,.918-1.5285,1.4883-2.5913,1.4883h-23.405c-1.0629,0-2.0558-.5703-2.5913-1.4883l-11.6667-20c-.5439-.9324-.5439-2.0909,0-3.0233l11.6667-20c.5355-.918,1.5285-1.4883,2.5913-1.4883h23.405m0-1h-23.405c-1.4227,0-2.7383,.7556-3.4551,1.9845l-11.6667,20c-.7265,1.2455-.7265,2.7855,0,4.031l11.6667,20c.7168,1.2289,2.0324,1.9845,3.4551,1.9845h23.405c1.4227,0,2.7383-.7556,3.4551-1.9845l11.6667-20c.7265-1.2455,.7265-2.7855,0-4.031l-11.6667-20c-.7169-1.2289-2.0324-1.9845-3.4551-1.9845h0Z"/>
      </g>
    </g>
    <g>
      <g class="cls-11">
        <path class="cls-6" d="M130.2975,128h22.2204c1.5436,0,2.5053-1.6744,1.7276-3.0077l-11.0878-19.0077c-.7168-1.2289-2.0324-1.9845-3.4551-1.9845h-22.2204c-1.5436,0-2.5053,1.6744-1.7276,3.0077l11.0878,19.0077c.7168,1.2289,2.0324,1.9845,3.4551,1.9845Z"/>
      </g>
      <g class="cls-10">
        <path d="M126.8243,130.0155l-11.0967,19.023c-.7718,1.323-2.6834,1.323-3.4551,0l-11.0967-19.023c-.7265-1.2455-.7265-2.7855,0-4.031l11.0967-19.023c.7718-1.323,2.6834-1.323,3.4551,0l11.0967,19.023c.7265,1.2455,.7265,2.7855,0,4.031Z"/>
      </g>
    </g>
  </g>
  <g>
    <g>
      <path class="cls-8" d="M208.86,84.2906l-25.551-44.2884c-1.4287-2.4765-4.0704-4.0022-6.9295-4.0022H80.7437c-3.5567,0-6.8457,1.8891-8.6378,4.9613l-32.1059,55.0387H4l5.5914,48.4585c.2329,2.0184,1.9419,3.5415,3.9736,3.5415h52.9888c2.134,0,4.1074-1.1335,5.1827-2.9768l30.3695-52.0619c1.7921-3.0722,5.0811-4.9613,8.6378-4.9613h40.2375l13.0188,23,43.1534-21.1176c2.0806-1.0182,2.8641-3.5853,1.7065-5.5918Z"/>
      <g class="cls-9">
        <path class="cls-6" d="M176.3795,37c2.4938,0,4.8171,1.3419,6.0633,3.5019l25.551,44.2884c.4199,.7278,.5161,1.5713,.2708,2.3749-.2453,.8036-.796,1.4496-1.5507,1.819l-42.3075,20.7036-12.5549-22.1804c-.1775-.3136-.5099-.5074-.8703-.5074h-40.2375c-3.8971,0-7.5379,2.0912-9.5016,5.4575l-30.3694,52.0619c-.8926,1.5302-2.5475,2.4807-4.3189,2.4807H13.565c-1.5243,0-2.8055-1.1419-2.9802-2.6561l-5.4628-47.3439H40c.3557,0,.6846-.1889,.8638-.4962l32.1059-55.0387c1.6066-2.7542,4.5855-4.4651,7.774-4.4651h95.6358m0-1H80.7437c-3.5567,0-6.8457,1.8891-8.6378,4.9613l-32.1059,55.0387H4l5.5914,48.4585c.2329,2.0184,1.9419,3.5415,3.9736,3.5415h52.9888c2.134,0,4.1074-1.1335,5.1827-2.9767l30.3694-52.062c1.7921-3.0722,5.0811-4.9613,8.6378-4.9613h40.2375l13.0188,23,43.1534-21.1176c2.0806-1.0182,2.8641-3.5853,1.7065-5.5918l-25.551-44.2884c-1.4287-2.4764-4.0704-4.0022-6.9295-4.0022h0Z"/>
      </g>
    </g>
    <path class="cls-3" d="M9.4796,143.4895l-5.4796-47.4895H40l-27.731,48.0672c-.7224,1.2521-2.6237,.8584-2.7894-.5776Z"/>
    <path class="cls-2" d="M164,111l41.1816-20.1527c1.428-.6988,.9305-2.8473-.6593-2.8473h-53.5222l13,23Z"/>
  </g>
  <g>
    <g>
      <path class="cls-4" d="M47.14,171.7094l25.551,44.2884c1.4287,2.4765,4.0704,4.0022,6.9295,4.0022h95.6358c3.5567,0,6.8457-1.8891,8.6378-4.9613l32.1059-55.0387h36l-5.5914-48.4585c-.2329-2.0184-1.9419-3.5415-3.9736-3.5415h-52.9888c-2.134,0-4.1074,1.1335-5.1827,2.9768l-30.3695,52.0619c-1.7921,3.0722-5.0811,4.9613-8.6378,4.9613h-40.2375l-13.0188-23-43.1534,21.1176c-2.0806,1.0182-2.8641,3.5853-1.7065,5.5918Z"/>
      <g class="cls-9">
        <path class="cls-6" d="M242.435,109c1.5243,0,2.8055,1.1419,2.9802,2.6561l5.4628,47.3439h-34.878c-.3557,0-.6846,.1889-.8638,.4962l-32.1059,55.0387c-1.6066,2.7542-4.5855,4.4651-7.774,4.4651H79.6205c-2.4938,0-4.8171-1.3419-6.0633-3.5019l-25.551-44.2884c-.4199-.7278-.5161-1.5713-.2708-2.3749,.2453-.8036,.796-1.4496,1.5507-1.819l42.3075-20.7036,12.5549,22.1804c.1775,.3136,.5099,.5074,.8702,.5074h40.2375c3.8971,0,7.5379-2.0912,9.5016-5.4575l30.3694-52.0619c.8926-1.5302,2.5475-2.4807,4.3189-2.4807h52.9888m0-1h-52.9888c-2.134,0-4.1074,1.1335-5.1827,2.9767l-30.3694,52.062c-1.7921,3.0722-5.0811,4.9613-8.6378,4.9613h-40.2375l-13.0188-23-43.1534,21.1176c-2.0806,1.0182-2.8641,3.5853-1.7065,5.5918l25.551,44.2884c1.4287,2.4764,4.0704,4.0022,6.9295,4.0022h95.6358c3.5567,0,6.8457-1.8891,8.6378-4.9613l32.1059-55.0387h36l-5.5914-48.4585c-.2329-2.0184-1.9419-3.5415-3.9736-3.5415h0Z"/>
      </g>
    </g>
    <path class="cls-5" d="M246.5204,112.5105l5.4796,47.4895h-36l27.731-48.0672c.7224-1.2521,2.6237-.8584,2.7894,.5776Z"/>
    <path class="cls-1" d="M92,145l-41.1816,20.1527c-1.428,.6988-.9305,2.8473,.6593,2.8473h53.5222l-13-23Z"/>
  </g>
</svg>