<svg width="32" height="32" viewBox="0 0 32 32" fill="none" xmlns="http://www.w3.org/2000/svg">
    <path d="M25 13L24.5664 12.2567L27.8722 10.3677L23.5744 3H8.4197L3.8483 11H0V19H7L7.4336 19.7433L5.0039 21.1318L4.1278 21.6323L8.4256 29H23.5803L28.1517 21H32V13H25Z" fill="white"/>
    <path d="M1 17.125V12H3.875L1 17.125Z" fill="#333333"/>
    <path d="M19.7917 10.5L21.25 13L25.625 10.5H19.7917Z" fill="black"/>
    <path d="M26.5 10L23 4H9L1 18H8L12.5 10H26.5Z" fill="url(#paint0_linear_6_959)"/>
    <path d="M28.125 20H31V14.875L28.125 20Z" fill="black"/>
    <path d="M12.2083 21.5L10.75 19L6.375 21.5H12.2083Z" fill="#333333"/>
    <path d="M5.5 22L9 28H23L31 14H24L19.5 22H5.5Z" fill="url(#paint1_linear_6_959)"/>
    <path d="M17.75 13H14.25L12.5 16L14.25 19H17.75L19.5 16L17.75 13Z" fill="url(#paint2_radial_6_959)"/>
    <defs>
    <linearGradient id="paint0_linear_6_959" x1="22.2821" y1="4.2069" x2="1.0885" y2="17.2683" gradientUnits="userSpaceOnUse">
    <stop offset="0.3082" stop-color="#333333"/>
    <stop offset="0.6061"/>
    </linearGradient>
    <linearGradient id="paint1_linear_6_959" x1="30.7139" y1="15.6335" x2="9.552" y2="27.6728" gradientUnits="userSpaceOnUse">
    <stop offset="0.3812" stop-color="#333333"/>
    <stop offset="0.6753"/>
    </linearGradient>
    <radialGradient id="paint2_radial_6_959" cx="0" cy="0" r="1" gradientUnits="userSpaceOnUse" gradientTransform="translate(16.8837 14.3902) rotate(120.343) scale(5.1229 4.335)">
    <stop stop-color="#FF0000"/>
    <stop offset="0.1498" stop-color="#F90000"/>
    <stop offset="0.3381" stop-color="#EA0000"/>
    <stop offset="0.547" stop-color="#D00000"/>
    <stop offset="0.7707" stop-color="#AC0000"/>
    <stop offset="1" stop-color="#800000"/>
    </radialGradient>
    </defs>
</svg>
